<svg class="svg-icon" style="width: 1em; height: 1em;vertical-align: middle;fill: currentColor;overflow: hidden;" viewBox="0 0 1024 1024" version="1.1" xmlns="http://www.w3.org/2000/svg"><path d="M938.666667 369.777778H452.266667c-39.822222-68.266667-113.777778-113.777778-196.266667-113.777778-125.155556 0-227.555556 102.4-227.555556 227.555556s102.4 227.555556 227.555556 227.555555c85.333333 0 156.444444-45.511111 196.266667-113.777778H568.888889l56.888889-56.888889 56.888889 36.977778 85.333333-93.866666 56.888889 56.888888 56.888889-56.888888 56.888889 56.888888 56.888889-85.333333-56.888889-85.333333zM170.666667 568.888889c-48.355556 0-85.333333-36.977778-85.333334-85.333333s36.977778-85.333333 85.333334-85.333334 85.333333 36.977778 85.333333 85.333334-36.977778 85.333333-85.333333 85.333333z" fill="" /></svg>